<svg width="266" height="124" viewBox="0 0 266 124" fill="none" xmlns="http://www.w3.org/2000/svg">
<path opacity="0.3" d="M47.2881 4.7976C30.5137 2.23623 14.8908 13.7197 12.3294 30.4941L5.29761 76.5452C2.73623 93.3196 14.2201 108.943 30.9945 111.504L77.0452 118.536C93.8196 121.097 109.443 109.613 112.004 92.8388L119.036 46.7877C121.597 30.0133 110.113 14.3907 93.3388 11.8293L47.2881 4.7976Z" fill="url(#paint0_linear_1_134)"/>
<path d="M40.8851 12.354C25.3811 12.354 12.854 24.8807 12.854 40.3847L12.854 82.9483C12.854 98.4523 25.3811 110.979 40.8851 110.979L83.4483 110.979C98.9523 110.979 111.479 98.4523 111.479 82.9483L111.479 40.3847C111.479 24.8807 98.9523 12.354 83.4483 12.354L40.8851 12.354Z" fill="url(#paint1_linear_1_134)"/>
<path d="M28.3794 84.9971L64.5124 66.9315V63.7671L22.0497 84.9971H28.3794Z" fill="url(#paint2_linear_1_134)"/>
<path d="M31.5465 84.9971H57.4342V72.0524L31.5465 84.9971Z" fill="url(#paint3_linear_1_134)"/>
<path d="M71.5887 84.9971H97.4792L71.5887 72.0524V84.9971Z" fill="url(#paint4_linear_1_134)"/>
<path d="M106.974 80.2483V70.8435H88.1647L106.974 80.2483Z" fill="url(#paint5_linear_1_134)"/>
<path d="M106.972 47.2833L88.1601 56.6899H106.974L106.972 47.2833Z" fill="url(#paint6_linear_1_134)"/>
<path d="M56.0202 68.0119H60.2667V84.9971H68.758V68.0119H106.974V59.5206H73.0027L56.0202 68.0119Z" fill="url(#paint7_linear_1_134)"/>
<path d="M18.2708 39.247V62.3167H49.4608V39.247H18.2708ZM44.0801 42.3339L44.4393 43.4415H45.6044L44.6617 44.1253L45.0228 45.233L44.081 44.5492L43.1383 45.233L43.4994 44.1253L42.5576 43.4415H43.7209L44.0801 42.3339ZM45.0209 49.7375L44.0792 49.0529L43.1365 49.7375L43.4975 48.6307L42.5558 47.9452H43.72L44.0801 46.8375L44.4393 47.9452H45.6044L44.6617 48.6307L45.0209 49.7375ZM45.0209 54.2129L44.0792 53.5291L43.1365 54.2129L43.4975 53.1052L42.5558 52.4215H43.72L44.0801 51.3138L44.4393 52.4215H45.6044L44.6617 53.1052L45.0209 54.2129ZM42.4929 56.3836L41.552 55.6998L40.6103 56.3836L40.9704 55.2759L40.0286 54.5903H41.1919L41.553 53.4835L41.9131 54.5903H43.0763L42.1355 55.2759L42.4929 56.3836ZM39.8582 54.2129L38.9164 53.5291L37.9747 54.2129L38.3357 53.1052L37.393 52.4215H38.5572L38.9173 51.3138L39.2783 52.4215H40.4416L39.5008 53.1052L39.8582 54.2129ZM37.2763 56.3836L36.3346 55.6998L35.3919 56.3836L35.7529 55.2759L34.8112 54.5903H35.9754L36.3355 53.4835L36.6947 54.5903H37.8589L36.9171 55.2759L37.2763 56.3836ZM34.6115 54.2129L33.6698 53.5291L32.728 54.2129L33.089 53.1052L32.1464 52.4215H33.3106L33.6707 51.3138L34.0308 52.4215H35.1959L34.2532 53.1052L34.6115 54.2129ZM32.0579 56.3836L31.1153 55.6998L30.1744 56.3836L30.5346 55.2759L29.5928 54.5903H30.757L31.1162 53.4835L31.4772 54.5903H32.6405L31.6988 55.2759L32.0579 56.3836ZM29.477 54.2129L28.5344 53.5291L27.5917 54.2129L27.9527 53.1052L27.011 52.4215H28.1761L28.5353 51.3138L28.8954 52.4215H30.0596L29.1178 53.1052L29.477 54.2129ZM26.8396 56.3836L25.8987 55.6998L24.957 56.3836L25.3171 55.2759L24.3753 54.5903H25.5395L25.8996 53.4835L26.2597 54.5903H27.4239L26.4822 55.2759L26.8396 56.3836ZM24.2577 54.2129L23.316 53.5291L22.3742 54.2129L22.7343 53.1052L21.7917 52.4215H22.9568L23.3169 51.3138L23.6779 52.4215H24.8421L23.8994 53.1052L24.2577 54.2129ZM21.7908 47.9452H22.9559L23.316 46.8375L23.677 47.9452H24.8412L23.8985 48.6307L24.2586 49.7375L23.3169 49.0529L22.3751 49.7375L22.7352 48.6307L21.7908 47.9452ZM42.4929 47.4602L41.552 46.7764L40.6103 47.4602L40.9704 46.3525L40.0286 45.6669H41.1919L41.553 44.5611L41.9131 45.6669H43.0763L42.1355 46.3525L42.4929 47.4602ZM42.4929 51.8927L41.552 51.2071L40.6103 51.8927L40.9704 50.7832L40.0286 50.0994H41.1919L41.553 48.9918L41.9131 50.0994H43.0763L42.1355 50.7832L42.4929 51.8927ZM40.4398 47.9452L39.499 48.6307L39.8582 49.7375L38.9164 49.0529L37.9747 49.7375L38.3357 48.6307L37.393 47.9452H38.5572L38.9173 46.8375L39.2783 47.9452H40.4398ZM37.2763 51.8927L36.3346 51.2071L35.3919 51.8927L35.7529 50.7832L34.8112 50.0994H35.9754L36.3355 48.9918L36.6947 50.0994H37.8589L36.9171 50.7832L37.2763 51.8927ZM36.9153 46.3534L37.2763 47.4611L36.3346 46.7773L35.3919 47.4611L35.7529 46.3534L34.8112 45.6678H35.9754L36.3355 44.562L36.6947 45.6678H37.8589L36.9153 46.3534ZM35.195 47.9452L34.2523 48.6307L34.6124 49.7375L33.6707 49.0529L32.7289 49.7375L33.09 48.6307L32.1473 47.9452H33.3115L33.6716 46.8375L34.0317 47.9452H35.195ZM32.0579 51.8927L31.1153 51.2071L30.1744 51.8927L30.5346 50.7832L29.5928 50.0994H30.757L31.1162 48.9918L31.4772 50.0994H32.6405L31.6988 50.7832L32.0579 51.8927ZM31.6978 46.3534L32.0589 47.4611L31.1162 46.7773L30.1754 47.4611L30.5355 46.3534L29.5937 45.6678H30.7579L31.1171 44.562L31.4781 45.6678H32.6414L31.6978 46.3534ZM30.0596 47.9452L29.1178 48.6307L29.4788 49.7375L28.5362 49.0529L27.5926 49.7375L27.9536 48.6307L27.0119 47.9452H28.177L28.5362 46.8375L28.8963 47.9452H30.0596ZM26.8396 51.8927L25.8987 51.2071L24.957 51.8927L25.3171 50.7832L24.3753 50.0994H25.5395L25.8996 48.9918L26.2597 50.0994H27.4239L26.4822 50.7832L26.8396 51.8927ZM26.4804 46.4865L26.8396 47.5942L25.8987 46.9104L24.957 47.5942L25.3171 46.4865L24.3753 45.8028H25.5395L25.8996 44.6951L26.2597 45.8028H27.4239L26.4804 46.4865ZM41.1919 41.1615L41.553 40.0547L41.9131 41.1615H43.0763L42.1355 41.8461L42.4947 42.9529L41.5539 42.2691L40.6121 42.9529L40.9722 41.8461L40.0305 41.1615H41.1919ZM38.9164 42.3339L39.2774 43.4415H40.4407L39.4999 44.1253L39.8591 45.233L38.9173 44.5492L37.9756 45.233L38.3366 44.1253L37.3939 43.4415H38.5581L38.9164 42.3339ZM35.9745 41.1615L36.3346 40.0547L36.6938 41.1615H37.858L36.9162 41.8461L37.2772 42.9529L36.3355 42.2691L35.3928 42.9529L35.7538 41.8461L34.8121 41.1615H35.9745ZM33.6698 42.3339L34.0299 43.4415H35.195L34.2523 44.1253L34.6124 45.233L33.6707 44.5492L32.7289 45.233L33.09 44.1253L32.1473 43.4415H33.3115L33.6698 42.3339ZM30.7561 41.1615L31.1153 40.0547L31.4763 41.1615H32.6396L31.6978 41.8461L32.0589 42.9529L31.1162 42.2691L30.1754 42.9529L30.5355 41.8461L29.5937 41.1615H30.7561ZM28.5344 42.3339L28.8945 43.4415H30.0587L29.1169 44.1253L29.4779 45.233L28.5353 44.5492L27.5926 45.233L27.9536 44.1253L27.0119 43.4415H28.177L28.5344 42.3339ZM25.5386 41.1615L25.8987 40.0547L26.2588 41.1615H27.423L26.4813 41.8461L26.8405 42.9529L25.8996 42.2691L24.9579 42.9529L25.318 41.8461L24.3762 41.1615H25.5386ZM23.316 42.3339L23.677 43.4415H24.8412L23.8985 44.1253L24.2586 45.233L23.3169 44.5492L22.3751 45.233L22.7352 44.1253L21.7926 43.4415H22.9577L23.316 42.3339ZM20.4023 41.1615L20.7624 40.0547L21.1225 41.1615H22.2876L21.345 41.8461L21.7051 42.9529L20.7633 42.2691L19.8216 42.9529L20.1817 41.8461L19.2408 41.1615H20.4023ZM20.4023 45.6678L20.7624 44.562L21.1225 45.6678H22.2876L21.345 46.3534L21.7051 47.4611L20.7633 46.7773L19.8216 47.4611L20.1817 46.3534L19.2408 45.6678H20.4023ZM20.4023 50.0994L20.7624 48.9918L21.1225 50.0994H22.2876L21.345 50.7832L21.7051 51.8927L20.7633 51.2071L19.8197 51.8927L20.1798 50.7832L19.239 50.0994H20.4023ZM20.4023 54.5903L20.7624 53.4835L21.1225 54.5903H22.2876L21.344 55.2759L21.7041 56.3836L20.7624 55.6998L19.8206 56.3836L20.1808 55.2759L19.2399 54.5903H20.4023ZM21.7041 60.8872L20.7624 60.2025L19.8197 60.8872L20.1798 59.7786L19.239 59.0958H20.4023L20.7624 57.9872L21.1225 59.0958H22.2876L21.345 59.7786L21.7041 60.8872ZM23.316 57.9179L22.3742 58.6026L22.7343 57.4949L21.7917 56.8102H22.9568L23.3169 55.7035L23.6779 56.8102H24.8421L23.8994 57.4949L24.2596 58.6026L23.316 57.9179ZM26.8396 60.8872L25.8987 60.2025L24.957 60.8872L25.3171 59.7786L24.3735 59.0958H25.5377L25.8978 57.9872L26.2579 59.0958H27.4221L26.4804 59.7786L26.8396 60.8872ZM28.5344 57.9179L27.5917 58.6026L27.9527 57.4949L27.011 56.8102H28.1761L28.5353 55.7035L28.8954 56.8102H30.0596L29.1178 57.4949L29.4788 58.6026L28.5344 57.9179ZM32.0579 60.8872L31.1153 60.2025L30.1744 60.8872L30.5346 59.7786L29.5928 59.0958H30.757L31.1162 57.9872L31.4772 59.0958H32.6405L31.6988 59.7786L32.0579 60.8872ZM33.6698 57.8368L32.728 58.5214L33.089 57.4137L32.1464 56.7282H33.3106L33.6707 55.6214L34.0308 56.7282H35.1959L34.2532 57.4137L34.6133 58.5214L33.6698 57.8368ZM37.2763 60.9692L36.3346 60.2846L35.3919 60.9692L35.7529 59.8607L34.8112 59.1769H35.9754L36.3355 58.0692L36.6947 59.1769H37.8589L36.9171 59.8607L37.2763 60.9692ZM38.9164 57.9179L37.9747 58.6035L38.3357 57.4949L37.393 56.8102H38.5572L38.9173 55.7035L39.2783 56.8102H40.4416L39.5008 57.4949L39.86 58.6035L38.9164 57.9179ZM42.4929 60.8872L41.552 60.2025L40.6103 60.8872L40.9704 59.7786L40.0286 59.0958H41.1919L41.553 57.9872L41.9131 59.0958H43.0763L42.1355 59.7786L42.4929 60.8872ZM44.0801 57.9179L43.1374 58.6035L43.4985 57.4949L42.5567 56.8102H43.72L44.081 55.7035L44.4402 56.8102H45.6053L44.6626 57.4949L45.0237 58.6035L44.0801 57.9179ZM47.6028 60.8872L46.6601 60.2025L45.7174 60.8872L46.0785 59.7786L45.1367 59.0958H46.3018L46.661 57.9872L47.0211 59.0958H48.1853L47.2436 59.7786L47.6028 60.8872ZM47.2418 55.2759L47.6028 56.3836L46.6601 55.6998L45.7174 56.3836L46.0785 55.2759L45.1367 54.5903H46.3018L46.661 53.4835L47.0211 54.5903H48.1853L47.2418 55.2759ZM47.2418 50.7832L47.6028 51.8927L46.6601 51.2071L45.7174 51.8927L46.0785 50.7832L45.1367 50.0994H46.3018L46.661 48.9918L47.0211 50.0994H48.1853L47.2418 50.7832ZM47.2418 46.3534L47.6028 47.4611L46.6601 46.7773L45.7174 47.4611L46.0785 46.3534L45.1367 45.6678H46.3018L46.661 44.562L47.0211 45.6678H48.1853L47.2418 46.3534ZM47.2418 41.8461L47.6028 42.9529L46.6601 42.2691L45.7174 42.9529L46.0785 41.8461L45.1367 41.1615H46.3018L46.661 40.0547L47.0211 41.1615H48.1853L47.2418 41.8461Z" fill="url(#paint8_linear_1_134)"/>
<path d="M24.3416 78.6674H18.2708V81.7033L24.3416 78.6674Z" fill="url(#paint9_linear_1_134)"/>
<path d="M18.2708 72.1271V75.4228H30.8299L37.4213 72.1271H18.2708Z" fill="url(#paint10_linear_1_134)"/>
<path d="M18.2708 65.5869V68.8834H43.9087L50.501 65.5869H18.2708Z" fill="url(#paint11_linear_1_134)"/>
<path d="M49.4799 59.0201V62.3158H57.0431L63.6335 59.0201H49.4799Z" fill="url(#paint12_linear_1_134)"/>
<path d="M49.4753 52.3276V55.6241H70.4273L77.0186 52.3276H49.4753Z" fill="url(#paint13_linear_1_134)"/>
<path d="M49.4753 45.7882V49.0829H83.5079L90.0992 45.7882H49.4753Z" fill="url(#paint14_linear_1_134)"/>
<path d="M96.5903 42.5417L103.182 39.247H49.4753V42.5417H96.5903Z" fill="url(#paint15_linear_1_134)"/>
<path d="M154.186 45.1044H139.586V21.9244H154.186V25.4144H143.486V31.2844H152.586V34.7844H143.486V41.5344H154.186V45.1044Z" fill="#A88142"/>
<path d="M173.496 45.1044H169.896V35.0944C169.896 34.221 169.869 33.481 169.816 32.8744C169.762 32.261 169.642 31.7644 169.456 31.3844C169.269 31.011 169.009 30.7377 168.676 30.5644C168.342 30.3977 167.896 30.3144 167.336 30.3144C166.969 30.3144 166.576 30.3877 166.156 30.5344C165.736 30.681 165.312 30.881 164.886 31.1344C164.452 31.381 164.019 31.671 163.586 32.0044C163.152 32.331 162.732 32.6744 162.326 33.0344V45.1044H158.726V27.5344H162.326V29.9844C162.706 29.6044 163.132 29.2344 163.606 28.8744C164.072 28.521 164.566 28.2077 165.086 27.9344C165.606 27.661 166.142 27.441 166.696 27.2744C167.242 27.1144 167.796 27.0344 168.356 27.0344C169.342 27.0344 170.162 27.1744 170.816 27.4544C171.476 27.7344 172.006 28.1444 172.406 28.6844C172.799 29.2244 173.079 29.8877 173.246 30.6744C173.412 31.461 173.496 32.3644 173.496 33.3844V45.1044Z" fill="#A88142"/>
<path d="M193.365 27.5344V44.7744C193.365 45.941 193.209 46.961 192.896 47.8344C192.582 48.7077 192.089 49.431 191.415 50.0044C190.749 50.5777 189.892 51.0077 188.845 51.2944C187.792 51.581 186.535 51.7244 185.075 51.7244C183.722 51.7244 182.489 51.5877 181.375 51.3144C180.269 51.041 179.279 50.651 178.405 50.1444L179.575 47.2344C180.335 47.6477 181.172 47.9844 182.085 48.2444C182.992 48.511 183.989 48.6444 185.075 48.6444C185.922 48.6444 186.642 48.571 187.235 48.4244C187.822 48.2777 188.305 48.051 188.685 47.7444C189.059 47.4377 189.332 47.0377 189.505 46.5444C189.679 46.051 189.765 45.461 189.765 44.7744V43.0144C189.105 43.6144 188.332 44.1144 187.445 44.5144C186.565 44.9077 185.589 45.1044 184.515 45.1044C183.349 45.1044 182.335 44.8844 181.475 44.4444C180.622 44.0044 179.919 43.3877 179.365 42.5944C178.819 41.801 178.412 40.8577 178.146 39.7644C177.886 38.671 177.755 37.4644 177.755 36.1444C177.755 34.9844 177.886 33.8577 178.146 32.7644C178.412 31.671 178.832 30.6977 179.405 29.8444C179.979 28.9977 180.726 28.3177 181.646 27.8044C182.566 27.291 183.685 27.0344 185.005 27.0344C185.932 27.0344 186.832 27.221 187.705 27.5944C188.572 27.9677 189.342 28.4677 190.015 29.0944L190.285 27.5344H193.365ZM189.765 39.9344V31.9744C189.152 31.441 188.495 31.0144 187.795 30.6944C187.095 30.3744 186.355 30.2144 185.575 30.2144C184.915 30.2144 184.332 30.3644 183.825 30.6644C183.319 30.9577 182.889 31.3644 182.535 31.8844C182.182 32.4044 181.915 33.021 181.735 33.7344C181.562 34.4477 181.475 35.2277 181.475 36.0744C181.475 36.961 181.545 37.7644 181.685 38.4844C181.832 39.2044 182.059 39.8177 182.365 40.3244C182.672 40.831 183.069 41.2244 183.555 41.5044C184.042 41.7844 184.625 41.9244 185.305 41.9244C186.079 41.9244 186.842 41.7444 187.595 41.3844C188.349 41.031 189.072 40.5477 189.765 39.9344Z" fill="#A88142"/>
<path d="M202.326 45.1044H198.726V20.1644H202.326V45.1044Z" fill="#A88142"/>
<path d="M211.616 22.9144C211.616 23.6544 211.439 24.1644 211.085 24.4444C210.739 24.731 210.196 24.8744 209.456 24.8744C208.656 24.8744 208.102 24.7077 207.796 24.3744C207.482 24.0344 207.326 23.5477 207.326 22.9144C207.326 22.221 207.489 21.721 207.816 21.4144C208.142 21.1077 208.689 20.9544 209.456 20.9544C210.229 20.9544 210.782 21.1044 211.116 21.4044C211.449 21.711 211.616 22.2144 211.616 22.9144ZM211.285 45.1044H207.686V27.5344H211.285V45.1044Z" fill="#A88142"/>
<path d="M229.235 40.2344C229.235 41.201 229.049 42.0277 228.675 42.7144C228.302 43.3944 227.799 43.951 227.165 44.3844C226.539 44.8177 225.812 45.1344 224.985 45.3344C224.159 45.5277 223.292 45.6244 222.385 45.6244C221.472 45.6244 220.642 45.5477 219.895 45.3944C219.155 45.2344 218.495 45.0177 217.915 44.7444C217.335 44.471 216.835 44.1444 216.415 43.7644C215.995 43.3844 215.652 42.971 215.385 42.5244L218.135 40.6844C218.615 41.391 219.205 41.8944 219.905 42.1944C220.612 42.4944 221.405 42.6444 222.285 42.6444C222.719 42.6444 223.142 42.611 223.555 42.5444C223.969 42.4777 224.335 42.3577 224.655 42.1844C224.975 42.011 225.232 41.7777 225.425 41.4844C225.619 41.1977 225.715 40.8377 225.715 40.4044C225.715 40.0644 225.645 39.7777 225.505 39.5444C225.359 39.311 225.129 39.101 224.815 38.9144C224.502 38.7344 224.099 38.561 223.605 38.3944C223.105 38.2344 222.505 38.071 221.805 37.9044C221.012 37.7044 220.252 37.4744 219.525 37.2144C218.799 36.961 218.159 36.6244 217.605 36.2044C217.052 35.7844 216.609 35.261 216.275 34.6344C215.942 34.001 215.775 33.2144 215.775 32.2744C215.775 31.5277 215.912 30.8377 216.185 30.2044C216.465 29.5644 216.889 29.011 217.455 28.5444C218.015 28.071 218.712 27.701 219.545 27.4344C220.379 27.1677 221.349 27.0344 222.455 27.0344C223.222 27.0344 223.945 27.1077 224.625 27.2544C225.299 27.401 225.912 27.6077 226.465 27.8744C227.019 28.141 227.505 28.461 227.925 28.8344C228.352 29.2077 228.699 29.6244 228.965 30.0844L226.225 31.9444C226.059 31.6977 225.855 31.4577 225.615 31.2244C225.382 30.991 225.105 30.7844 224.785 30.6044C224.472 30.4244 224.115 30.281 223.715 30.1744C223.322 30.0677 222.879 30.0144 222.385 30.0144C221.445 30.0144 220.699 30.1977 220.145 30.5644C219.585 30.9244 219.305 31.451 219.305 32.1444C219.305 32.4644 219.365 32.7377 219.485 32.9644C219.599 33.1844 219.789 33.3844 220.055 33.5644C220.315 33.7444 220.659 33.9044 221.085 34.0444C221.505 34.1844 222.019 34.3277 222.625 34.4744C223.639 34.7277 224.555 35.001 225.375 35.2944C226.195 35.581 226.892 35.9377 227.465 36.3644C228.032 36.791 228.469 37.311 228.775 37.9244C229.082 38.5444 229.235 39.3144 229.235 40.2344Z" fill="#A88142"/>
<path d="M248.215 45.1044H244.615V35.0944C244.615 34.2077 244.582 33.4611 244.515 32.8544C244.455 32.2477 244.335 31.7577 244.155 31.3844C243.969 31.011 243.709 30.7377 243.375 30.5644C243.035 30.3977 242.592 30.3144 242.045 30.3144C241.679 30.3144 241.285 30.3877 240.865 30.5344C240.445 30.6811 240.022 30.881 239.595 31.1344C239.169 31.381 238.735 31.6711 238.295 32.0044C237.862 32.331 237.445 32.6744 237.045 33.0344V45.1044H233.445V20.1644H237.045V29.9844C237.425 29.6044 237.849 29.2344 238.315 28.8744C238.782 28.5211 239.275 28.2077 239.795 27.9344C240.315 27.661 240.852 27.4411 241.405 27.2744C241.959 27.1144 242.515 27.0344 243.075 27.0344C244.042 27.0344 244.855 27.1744 245.515 27.4544C246.175 27.7344 246.702 28.1444 247.095 28.6844C247.495 29.2244 247.782 29.8877 247.955 30.6744C248.129 31.4611 248.215 32.3644 248.215 33.3844V45.1044Z" fill="#A88142"/>
<path d="M155.696 69.5944C155.696 70.901 155.465 71.9977 155.006 72.8844C154.539 73.7777 153.909 74.501 153.116 75.0544C152.322 75.601 151.399 75.9944 150.346 76.2344C149.292 76.4744 148.172 76.5944 146.986 76.5944C145.739 76.5944 144.646 76.4777 143.706 76.2444C142.766 76.011 141.946 75.6944 141.246 75.2944C140.539 74.8944 139.939 74.4244 139.446 73.8844C138.946 73.351 138.512 72.7777 138.146 72.1644L141.226 69.9344C141.506 70.3677 141.816 70.7777 142.156 71.1644C142.496 71.551 142.892 71.8877 143.346 72.1744C143.799 72.4677 144.326 72.701 144.926 72.8744C145.532 73.0477 146.232 73.1344 147.026 73.1344C147.612 73.1344 148.189 73.0777 148.756 72.9644C149.316 72.851 149.816 72.6677 150.256 72.4144C150.689 72.1544 151.036 71.8177 151.296 71.4044C151.562 70.991 151.696 70.4777 151.696 69.8644C151.696 69.2844 151.569 68.7977 151.316 68.4044C151.062 68.0177 150.726 67.691 150.306 67.4244C149.879 67.151 149.382 66.9277 148.816 66.7544C148.242 66.5744 147.632 66.401 146.986 66.2344C145.806 65.9344 144.706 65.6244 143.686 65.3044C142.672 64.9844 141.792 64.5777 141.046 64.0844C140.292 63.5977 139.702 62.9744 139.276 62.2144C138.842 61.4544 138.626 60.481 138.626 59.2944C138.626 58.2477 138.806 57.301 139.166 56.4544C139.526 55.6144 140.049 54.8944 140.736 54.2944C141.429 53.701 142.292 53.2444 143.326 52.9244C144.359 52.6044 145.546 52.4444 146.886 52.4444C147.892 52.4444 148.812 52.5377 149.646 52.7244C150.472 52.911 151.226 53.1777 151.906 53.5244C152.579 53.8777 153.182 54.3144 153.716 54.8344C154.256 55.3544 154.726 55.9444 155.126 56.6044L152.096 58.8644C151.482 57.8777 150.756 57.141 149.916 56.6544C149.082 56.161 148.062 55.9144 146.856 55.9144C145.549 55.9144 144.512 56.181 143.746 56.7144C142.979 57.2544 142.596 58.0144 142.596 58.9944C142.596 59.4877 142.699 59.8977 142.906 60.2244C143.112 60.5577 143.432 60.8477 143.866 61.0944C144.292 61.3344 144.832 61.5544 145.486 61.7544C146.139 61.9477 146.912 62.151 147.806 62.3644C148.499 62.531 149.172 62.7077 149.826 62.8944C150.479 63.0877 151.099 63.311 151.686 63.5644C152.272 63.811 152.812 64.1044 153.306 64.4444C153.792 64.7844 154.212 65.1944 154.566 65.6744C154.919 66.1544 155.196 66.7177 155.396 67.3644C155.596 68.0044 155.696 68.7477 155.696 69.5944Z" fill="#A88142"/>
<path d="M175.605 67.2044C175.605 68.4311 175.472 69.6144 175.205 70.7544C174.939 71.8944 174.522 72.8977 173.955 73.7644C173.382 74.6377 172.649 75.3344 171.755 75.8544C170.862 76.3744 169.792 76.6344 168.545 76.6344C167.592 76.6344 166.702 76.4677 165.875 76.1344C165.049 75.8077 164.292 75.3444 163.605 74.7444V82.7244H159.995V58.5444H163.415V60.3044C164.155 59.6311 164.979 59.0877 165.885 58.6744C166.799 58.2544 167.795 58.0444 168.875 58.0444C170.049 58.0444 171.055 58.2677 171.895 58.7144C172.742 59.1611 173.442 59.7844 173.995 60.5844C174.549 61.3911 174.955 62.3577 175.215 63.4844C175.475 64.6111 175.605 65.8511 175.605 67.2044ZM171.895 67.2744C171.895 65.2944 171.569 63.7911 170.915 62.7644C170.262 61.7377 169.299 61.2244 168.025 61.2244C167.619 61.2244 167.212 61.2777 166.805 61.3844C166.399 61.4911 166.005 61.6344 165.625 61.8144C165.245 62.0011 164.882 62.2144 164.535 62.4544C164.189 62.6944 163.879 62.9477 163.605 63.2144V71.7244C163.872 71.9577 164.165 72.1777 164.485 72.3844C164.799 72.5911 165.135 72.7744 165.495 72.9344C165.849 73.0877 166.215 73.2077 166.595 73.2944C166.975 73.3877 167.362 73.4344 167.755 73.4344C168.315 73.4344 168.845 73.3177 169.345 73.0844C169.845 72.8511 170.285 72.4844 170.665 71.9844C171.039 71.4844 171.335 70.8477 171.555 70.0744C171.782 69.3011 171.895 68.3677 171.895 67.2744Z" fill="#A88142"/>
<path d="M183.936 53.9244C183.936 54.6577 183.759 55.1677 183.406 55.4544C183.052 55.7411 182.509 55.8844 181.776 55.8844C180.969 55.8844 180.412 55.7144 180.106 55.3744C179.799 55.0411 179.646 54.5577 179.646 53.9244C179.646 53.2311 179.809 52.7311 180.136 52.4244C180.456 52.1177 181.002 51.9644 181.776 51.9644C182.542 51.9644 183.096 52.1144 183.436 52.4144C183.769 52.7144 183.936 53.2177 183.936 53.9244ZM183.596 76.1144H179.996V58.5444H183.596V76.1144Z" fill="#A88142"/>
<path d="M199.645 58.6244L198.925 62.0744C198.745 62.0077 198.512 61.9477 198.225 61.8944C197.945 61.8411 197.652 61.8144 197.345 61.8144C196.859 61.8144 196.395 61.8811 195.955 62.0144C195.522 62.1477 195.109 62.3277 194.715 62.5544C194.315 62.7811 193.932 63.0511 193.565 63.3644C193.199 63.6777 192.835 64.0077 192.475 64.3544V76.1144H188.875V58.5444H192.475V61.2244C192.855 60.8244 193.245 60.4444 193.645 60.0844C194.045 59.7244 194.469 59.4111 194.915 59.1444C195.355 58.8777 195.815 58.6677 196.295 58.5144C196.775 58.3544 197.282 58.2744 197.815 58.2744C198.229 58.2744 198.585 58.3044 198.885 58.3644C199.179 58.4311 199.432 58.5177 199.645 58.6244Z" fill="#A88142"/>
<path d="M206.626 53.9244C206.626 54.6577 206.449 55.1677 206.096 55.4544C205.749 55.7411 205.206 55.8844 204.466 55.8844C203.666 55.8844 203.109 55.7144 202.796 55.3744C202.489 55.0411 202.336 54.5577 202.336 53.9244C202.336 53.2311 202.499 52.7311 202.826 52.4244C203.152 52.1177 203.699 51.9644 204.466 51.9644C205.239 51.9644 205.792 52.1144 206.126 52.4144C206.459 52.7144 206.626 53.2177 206.626 53.9244ZM206.296 76.1144H202.696V58.5444H206.296V76.1144Z" fill="#A88142"/>
<path d="M220.046 73.1644L220.796 76.1144C220.296 76.2677 219.729 76.3944 219.096 76.4944C218.462 76.5877 217.862 76.6344 217.296 76.6344C216.336 76.6344 215.519 76.5177 214.846 76.2844C214.166 76.0577 213.612 75.7077 213.186 75.2344C212.752 74.7611 212.436 74.1544 212.236 73.4144C212.036 72.6811 211.936 71.8111 211.936 70.8044V61.4744H209.576V58.5444H211.936V53.6544H215.535V58.5444H219.796V61.4744H215.535V70.2544C215.535 70.8744 215.572 71.4011 215.646 71.8344C215.719 72.2611 215.839 72.6111 216.006 72.8844C216.172 73.1511 216.392 73.3444 216.666 73.4644C216.939 73.5911 217.272 73.6544 217.666 73.6544C218.052 73.6544 218.465 73.6044 218.905 73.5044C219.339 73.4111 219.719 73.2977 220.046 73.1644Z" fill="#A88142"/>
<path d="M144.706 92.0627L144.176 93.0327C143.322 92.4927 142.379 92.2227 141.346 92.2227C140.572 92.2227 139.999 92.3927 139.626 92.7327C139.252 93.0794 139.066 93.4827 139.066 93.9427C139.066 94.396 139.212 94.7627 139.506 95.0427C139.806 95.3294 140.286 95.5394 140.946 95.6727L142.516 96.0027C144.409 96.4027 145.356 97.4594 145.356 99.1727C145.356 100.073 144.999 100.826 144.286 101.433C143.579 102.039 142.566 102.343 141.246 102.343C140.486 102.343 139.832 102.276 139.286 102.143C138.746 102.009 138.166 101.783 137.546 101.463L137.976 100.343C139.029 100.949 140.106 101.253 141.206 101.253C142.219 101.253 142.959 101.063 143.426 100.683C143.892 100.303 144.126 99.806 144.126 99.1927C144.126 98.586 143.962 98.1194 143.636 97.7927C143.302 97.4727 142.746 97.2294 141.966 97.0627L140.236 96.6927C139.529 96.5527 138.962 96.2527 138.536 95.7927C138.109 95.326 137.896 94.7327 137.896 94.0127C137.896 93.1727 138.199 92.4927 138.806 91.9727C139.419 91.446 140.266 91.1827 141.346 91.1827C142.639 91.1827 143.759 91.476 144.706 92.0627Z" fill="#A88142"/>
<path d="M148.026 105.923H146.836V94.1927C148.002 93.8727 149.219 93.7127 150.486 93.7127C151.946 93.7127 153.069 94.076 153.856 94.8027C154.642 95.5294 155.036 96.5727 155.036 97.9327C155.036 99.1994 154.662 100.243 153.916 101.063C153.169 101.883 152.129 102.293 150.796 102.293C150.216 102.293 149.719 102.229 149.306 102.103C148.892 101.976 148.466 101.736 148.026 101.383V105.923ZM148.026 95.0627V100.133C148.839 100.859 149.762 101.223 150.796 101.223C151.696 101.223 152.429 100.926 152.996 100.333C153.556 99.746 153.836 98.946 153.836 97.9327C153.836 96.866 153.532 96.0627 152.926 95.5227C152.319 94.9827 151.489 94.7127 150.436 94.7127C149.609 94.7127 148.806 94.8294 148.026 95.0627Z" fill="#A88142"/>
<path d="M164.326 98.2627H157.396C157.449 99.256 157.799 100.003 158.446 100.503C159.086 101.003 159.886 101.253 160.846 101.253C161.992 101.253 162.949 101.049 163.716 100.643L164.066 101.683C163.172 102.089 162.076 102.293 160.776 102.293C159.316 102.293 158.186 101.909 157.386 101.143C156.592 100.376 156.196 99.3327 156.196 98.0127C156.196 96.7394 156.619 95.7027 157.466 94.9027C158.312 94.1094 159.379 93.7127 160.666 93.7127C161.919 93.7127 162.866 94.0194 163.506 94.6327C164.139 95.2527 164.456 96.0727 164.456 97.0927C164.456 97.5194 164.412 97.9094 164.326 98.2627ZM157.416 97.2627H163.316C163.316 96.356 163.096 95.7094 162.656 95.3227C162.209 94.9294 161.502 94.7327 160.536 94.7327C159.742 94.7327 159.046 94.956 158.446 95.4027C157.846 95.8494 157.502 96.4694 157.416 97.2627Z" fill="#A88142"/>
<path d="M166.706 95.3727L166.386 94.3827C167.446 93.936 168.576 93.7127 169.776 93.7127C170.969 93.7127 171.849 93.936 172.416 94.3827C172.976 94.836 173.256 95.5527 173.256 96.5327V100.113C173.256 100.553 173.332 100.856 173.486 101.023C173.639 101.189 173.929 101.276 174.356 101.283V102.123C174.062 102.236 173.762 102.293 173.456 102.293C173.109 102.293 172.846 102.186 172.666 101.973C172.486 101.753 172.372 101.386 172.326 100.873C171.446 101.819 170.226 102.293 168.666 102.293C167.706 102.293 166.992 102.076 166.526 101.643C166.052 101.216 165.816 100.613 165.816 99.8327C165.816 99.106 166.052 98.4694 166.526 97.9227C167.899 97.5027 169.752 97.2594 172.086 97.1927V96.5827C172.086 95.936 171.909 95.4694 171.556 95.1827C171.202 94.896 170.579 94.7527 169.686 94.7527C168.699 94.7527 167.706 94.9594 166.706 95.3727ZM172.086 99.9827V98.0627C170.226 98.096 168.686 98.2727 167.466 98.5927C167.179 98.926 167.036 99.306 167.036 99.7327C167.036 100.746 167.619 101.253 168.786 101.253C170.126 101.253 171.226 100.829 172.086 99.9827Z" fill="#A88142"/>
<path d="M175.546 102.123V90.0827H176.736V97.5927L178.366 96.4827L181.306 93.8727H182.806L182.826 94.0127L179.226 97.1127L183.086 101.993L183.056 102.123H181.686L178.286 97.7727L176.736 98.6727V102.123H175.546Z" fill="#A88142"/>
<path d="M189.356 99.6027V90.0827H190.546V99.8627C190.546 100.303 190.639 100.626 190.826 100.833C191.012 101.033 191.336 101.146 191.796 101.173V102.193C191.642 102.213 191.512 102.223 191.406 102.223C190.039 102.223 189.356 101.349 189.356 99.6027Z" fill="#A88142"/>
<path d="M193.106 102.123V93.8727H194.286V102.123H193.106ZM193.016 90.6327C193.182 90.4527 193.409 90.3627 193.696 90.3627C193.982 90.3627 194.212 90.4527 194.386 90.6327C194.552 90.8127 194.636 91.036 194.636 91.3027C194.636 91.556 194.549 91.776 194.376 91.9627C194.196 92.1494 193.969 92.2427 193.696 92.2427C193.422 92.2427 193.196 92.1494 193.016 91.9627C192.842 91.776 192.756 91.556 192.756 91.3027C192.756 91.036 192.842 90.8127 193.016 90.6327Z" fill="#A88142"/>
<path d="M196.436 102.123V90.0827H197.626V97.5927L199.256 96.4827L202.196 93.8727H203.696L203.716 94.0127L200.116 97.1127L203.976 101.993L203.946 102.123H202.576L199.176 97.7727L197.626 98.6727V102.123H196.436Z" fill="#A88142"/>
<path d="M212.356 98.2627H205.426C205.479 99.256 205.829 100.003 206.476 100.503C207.122 101.003 207.922 101.253 208.876 101.253C210.022 101.253 210.979 101.049 211.746 100.643L212.096 101.683C211.202 102.089 210.106 102.293 208.806 102.293C207.346 102.293 206.216 101.909 205.416 101.143C204.622 100.376 204.226 99.3327 204.226 98.0127C204.226 96.7394 204.649 95.7027 205.496 94.9027C206.342 94.1094 207.409 93.7127 208.696 93.7127C209.949 93.7127 210.896 94.0194 211.536 94.6327C212.169 95.2527 212.486 96.0727 212.486 97.0927C212.486 97.5194 212.442 97.9094 212.356 98.2627ZM205.446 97.2627H211.356C211.356 96.356 211.132 95.7094 210.686 95.3227C210.239 94.9294 209.532 94.7327 208.566 94.7327C207.772 94.7327 207.076 94.956 206.476 95.4027C205.876 95.8494 205.532 96.4694 205.446 97.2627Z" fill="#A88142"/>
<path d="M219.766 95.3727L219.456 94.3827C220.509 93.936 221.636 93.7127 222.836 93.7127C224.036 93.7127 224.916 93.936 225.476 94.3827C226.036 94.836 226.316 95.5527 226.316 96.5327V100.113C226.316 100.553 226.392 100.856 226.546 101.023C226.699 101.189 226.992 101.276 227.426 101.283V102.123C227.126 102.236 226.822 102.293 226.516 102.293C226.176 102.293 225.916 102.186 225.736 101.973C225.549 101.753 225.436 101.386 225.396 100.873C224.516 101.819 223.292 102.293 221.726 102.293C220.772 102.293 220.059 102.076 219.586 101.643C219.112 101.216 218.876 100.613 218.876 99.8327C218.876 99.106 219.112 98.4694 219.586 97.9227C220.959 97.5027 222.812 97.2594 225.146 97.1927V96.5827C225.146 95.936 224.969 95.4694 224.616 95.1827C224.262 94.896 223.642 94.7527 222.756 94.7527C221.762 94.7527 220.766 94.9594 219.766 95.3727ZM225.146 99.9827V98.0627C223.286 98.096 221.746 98.2727 220.526 98.5927C220.239 98.926 220.096 99.306 220.096 99.7327C220.096 100.746 220.679 101.253 221.846 101.253C223.186 101.253 224.286 100.829 225.146 99.9827Z" fill="#A88142"/>
<path d="M233.806 102.123V91.4027H235.026V97.4027L240.736 91.4027H242.306L238.066 95.7927L242.846 102.123H241.336L237.226 96.5627L235.026 98.6927V102.123H233.806Z" fill="#A88142"/>
<path d="M244.166 102.123V93.8727H245.356V102.123H244.166ZM244.076 90.6327C244.249 90.4527 244.479 90.3627 244.766 90.3627C245.052 90.3627 245.279 90.4527 245.446 90.6327C245.619 90.8127 245.706 91.036 245.706 91.3027C245.706 91.556 245.616 91.776 245.436 91.9627C245.262 92.1494 245.039 92.2427 244.766 92.2427C244.492 92.2427 244.266 92.1494 244.086 91.9627C243.912 91.776 243.826 91.556 243.826 91.3027C243.826 91.036 243.909 90.8127 244.076 90.6327Z" fill="#A88142"/>
<path d="M247.506 102.123V93.8727H248.496L248.626 95.3627C249.352 94.2627 250.462 93.7127 251.956 93.7127C253.069 93.7127 253.922 94.0194 254.516 94.6327C255.109 95.2527 255.406 96.146 255.406 97.3127V102.123H254.216V97.2927C254.216 95.586 253.462 94.7327 251.956 94.7327C251.196 94.7327 250.559 94.8827 250.046 95.1827C249.526 95.476 249.076 95.936 248.696 96.5627V102.123H247.506Z" fill="#A88142"/>
<path d="M261.446 93.7127H265.866V94.5527H263.736C264.529 95.0394 264.926 95.716 264.926 96.5827C264.926 97.416 264.606 98.1027 263.966 98.6427C263.319 99.1827 262.436 99.4527 261.316 99.4527C260.409 99.4527 259.666 99.2994 259.086 98.9927C258.579 99.1994 258.326 99.5394 258.326 100.013C258.326 100.333 258.459 100.599 258.726 100.813C258.986 101.026 259.396 101.133 259.956 101.133H262.136C263.129 101.133 264.042 101.239 264.876 101.453C265.316 102.019 265.536 102.639 265.536 103.313C265.536 103.886 265.389 104.379 265.096 104.793C264.796 105.206 264.399 105.516 263.906 105.723C263.412 105.929 262.909 106.079 262.396 106.173C261.882 106.266 261.346 106.313 260.786 106.313C259.599 106.313 258.686 106.089 258.046 105.643C257.406 105.189 257.086 104.563 257.086 103.763C257.086 102.889 257.466 102.199 258.226 101.693C257.612 101.399 257.306 100.896 257.306 100.183C257.306 99.456 257.662 98.876 258.376 98.4427C257.936 97.9294 257.716 97.3094 257.716 96.5827C257.716 95.7027 258.042 95.0027 258.696 94.4827C259.349 93.9694 260.266 93.7127 261.446 93.7127ZM262.266 102.123H260.246C259.912 102.123 259.536 102.096 259.116 102.043C258.469 102.363 258.146 102.876 258.146 103.583C258.146 104.756 259.079 105.343 260.946 105.343C261.312 105.343 261.676 105.316 262.036 105.263C262.389 105.209 262.766 105.116 263.166 104.983C263.559 104.849 263.876 104.643 264.116 104.363C264.362 104.083 264.486 103.749 264.486 103.363C264.486 102.989 264.376 102.643 264.156 102.323C263.536 102.189 262.906 102.123 262.266 102.123ZM259.466 95.1227C259.012 95.4694 258.786 95.956 258.786 96.5827C258.786 97.2094 259.006 97.686 259.446 98.0127C259.879 98.346 260.502 98.5127 261.316 98.5127C262.076 98.5127 262.682 98.346 263.136 98.0127C263.596 97.686 263.826 97.2094 263.826 96.5827C263.826 95.9427 263.589 95.4527 263.116 95.1127C262.649 94.7727 262.049 94.6027 261.316 94.6027C260.536 94.6027 259.919 94.776 259.466 95.1227Z" fill="#A88142"/>
<defs>
<linearGradient id="paint0_linear_1_134" x1="16.9603" y1="0.166672" x2="107.373" y2="123.167" gradientUnits="userSpaceOnUse">
<stop stop-color="#8F5E25"/>
<stop offset="0.5" stop-color="#FBF4A1"/>
<stop offset="1" stop-color="#8F5E25"/>
</linearGradient>
<linearGradient id="paint1_linear_1_134" x1="12.854" y1="12.354" x2="111.479" y2="110.979" gradientUnits="userSpaceOnUse">
<stop stop-color="#8F5E25"/>
<stop offset="0.5" stop-color="#FBF4A1"/>
<stop offset="1" stop-color="#8F5E25"/>
</linearGradient>
<linearGradient id="paint2_linear_1_134" x1="22.0497" y1="63.7671" x2="138.743" y2="180.46" gradientUnits="userSpaceOnUse">
<stop stop-color="#834F2A"/>
<stop offset="0.5" stop-color="#DBA173"/>
<stop offset="1" stop-color="#834F2A"/>
</linearGradient>
<linearGradient id="paint3_linear_1_134" x1="31.5465" y1="72.0524" x2="148.24" y2="188.746" gradientUnits="userSpaceOnUse">
<stop stop-color="#834F2A"/>
<stop offset="0.5" stop-color="#DBA173"/>
<stop offset="1" stop-color="#834F2A"/>
</linearGradient>
<linearGradient id="paint4_linear_1_134" x1="71.5887" y1="72.0524" x2="188.282" y2="188.746" gradientUnits="userSpaceOnUse">
<stop stop-color="#834F2A"/>
<stop offset="0.5" stop-color="#DBA173"/>
<stop offset="1" stop-color="#834F2A"/>
</linearGradient>
<linearGradient id="paint5_linear_1_134" x1="88.1647" y1="70.8435" x2="204.858" y2="187.537" gradientUnits="userSpaceOnUse">
<stop stop-color="#834F2A"/>
<stop offset="0.5" stop-color="#DBA173"/>
<stop offset="1" stop-color="#834F2A"/>
</linearGradient>
<linearGradient id="paint6_linear_1_134" x1="88.1601" y1="47.2833" x2="204.853" y2="163.977" gradientUnits="userSpaceOnUse">
<stop stop-color="#834F2A"/>
<stop offset="0.5" stop-color="#DBA173"/>
<stop offset="1" stop-color="#834F2A"/>
</linearGradient>
<linearGradient id="paint7_linear_1_134" x1="56.0202" y1="59.5206" x2="172.714" y2="176.214" gradientUnits="userSpaceOnUse">
<stop stop-color="#834F2A"/>
<stop offset="0.5" stop-color="#DBA173"/>
<stop offset="1" stop-color="#834F2A"/>
</linearGradient>
<linearGradient id="paint8_linear_1_134" x1="18.2708" y1="39.247" x2="134.964" y2="155.94" gradientUnits="userSpaceOnUse">
<stop stop-color="#834F2A"/>
<stop offset="0.5" stop-color="#DBA173"/>
<stop offset="1" stop-color="#834F2A"/>
</linearGradient>
<linearGradient id="paint9_linear_1_134" x1="18.2708" y1="78.6674" x2="134.964" y2="195.361" gradientUnits="userSpaceOnUse">
<stop stop-color="#834F2A"/>
<stop offset="0.5" stop-color="#DBA173"/>
<stop offset="1" stop-color="#834F2A"/>
</linearGradient>
<linearGradient id="paint10_linear_1_134" x1="18.2708" y1="72.1271" x2="134.964" y2="188.82" gradientUnits="userSpaceOnUse">
<stop stop-color="#834F2A"/>
<stop offset="0.5" stop-color="#DBA173"/>
<stop offset="1" stop-color="#834F2A"/>
</linearGradient>
<linearGradient id="paint11_linear_1_134" x1="18.2708" y1="65.5869" x2="134.964" y2="182.28" gradientUnits="userSpaceOnUse">
<stop stop-color="#834F2A"/>
<stop offset="0.5" stop-color="#DBA173"/>
<stop offset="1" stop-color="#834F2A"/>
</linearGradient>
<linearGradient id="paint12_linear_1_134" x1="49.4799" y1="59.0201" x2="166.173" y2="175.713" gradientUnits="userSpaceOnUse">
<stop stop-color="#834F2A"/>
<stop offset="0.5" stop-color="#DBA173"/>
<stop offset="1" stop-color="#834F2A"/>
</linearGradient>
<linearGradient id="paint13_linear_1_134" x1="49.4753" y1="52.3276" x2="166.169" y2="169.021" gradientUnits="userSpaceOnUse">
<stop stop-color="#834F2A"/>
<stop offset="0.5" stop-color="#DBA173"/>
<stop offset="1" stop-color="#834F2A"/>
</linearGradient>
<linearGradient id="paint14_linear_1_134" x1="49.4753" y1="45.7882" x2="166.169" y2="162.481" gradientUnits="userSpaceOnUse">
<stop stop-color="#834F2A"/>
<stop offset="0.5" stop-color="#DBA173"/>
<stop offset="1" stop-color="#834F2A"/>
</linearGradient>
<linearGradient id="paint15_linear_1_134" x1="49.4753" y1="39.247" x2="166.169" y2="155.94" gradientUnits="userSpaceOnUse">
<stop stop-color="#834F2A"/>
<stop offset="0.5" stop-color="#DBA173"/>
<stop offset="1" stop-color="#834F2A"/>
</linearGradient>
</defs>
</svg>
